<svg width="8" height="9" viewBox="0 0 8 9" fill="none" xmlns="http://www.w3.org/2000/svg">
<path d="M0.219694 2.26451L5.46759 7.5124L2.01447 7.5124C1.9165 7.512 1.81942 7.531 1.72882 7.56831C1.63823 7.60562 1.55592 7.66049 1.48664 7.72977C1.41736 7.79905 1.36249 7.88136 1.32518 7.97195C1.28787 8.06255 1.26887 8.15963 1.26927 8.25761C1.26986 8.45367 1.348 8.64154 1.48664 8.78019C1.62529 8.91883 1.81316 8.99697 2.00922 8.99756L6.51716 8.99231C6.9102 8.99348 7.28765 8.83873 7.56674 8.56198C7.84028 8.28334 7.99301 7.90812 7.99182 7.51765L7.99707 3.00971C7.99673 2.9122 7.97718 2.8157 7.93954 2.72574C7.9019 2.63578 7.84692 2.55411 7.77772 2.4854C7.70852 2.41669 7.62647 2.36228 7.53624 2.32528C7.44602 2.28828 7.34939 2.26942 7.25187 2.26976C7.15435 2.2701 7.05786 2.28965 6.9679 2.32729C6.87794 2.36493 6.79627 2.41991 6.72756 2.48911C6.65885 2.55831 6.60444 2.64036 6.56744 2.73059C6.53044 2.82081 6.51157 2.91744 6.51192 3.01496L6.51716 6.46283L1.26927 1.21493C1.13009 1.07575 0.941317 0.997558 0.744482 0.997558C0.547648 0.997558 0.358876 1.07575 0.219693 1.21493C0.0805101 1.35412 0.00231836 1.54289 0.00231835 1.73972C0.00231834 1.93656 0.080511 2.12533 0.219694 2.26451Z" fill="#97ADB6"/>
</svg>
