<svg width="8" height="8" viewBox="0 0 8 8" fill="none" xmlns="http://www.w3.org/2000/svg">
<path d="M1.26695 7.77738L6.51485 2.52948L6.51485 5.9826C6.51444 6.08057 6.53345 6.17765 6.57075 6.26825C6.60806 6.35884 6.66294 6.44115 6.73221 6.51043C6.80149 6.57971 6.8838 6.63458 6.9744 6.67189C7.06499 6.7092 7.16207 6.7282 7.26005 6.7278C7.45612 6.72721 7.64399 6.64907 7.78263 6.51043C7.92127 6.37178 7.99942 6.18391 8 5.98785L7.99475 1.47991C7.99593 1.08687 7.84117 0.709415 7.56442 0.430328C7.28578 0.156787 6.91056 0.00406306 6.52009 0.00524826L2.01215 0C1.91464 0.000344579 1.81814 0.019893 1.72818 0.0575293C1.63822 0.0951656 1.55655 0.150153 1.48784 0.219351C1.41913 0.288549 1.36472 0.370604 1.32772 0.46083C1.29072 0.551055 1.27186 0.647685 1.2722 0.745201C1.27255 0.842718 1.2921 0.939212 1.32973 1.02917C1.36737 1.11914 1.42235 1.2008 1.49155 1.26951C1.56075 1.33822 1.64281 1.39263 1.73303 1.42963C1.82326 1.46663 1.91989 1.4855 2.0174 1.48515L5.46527 1.47991L0.217375 6.7278C0.0781922 6.86698 0 7.05575 0 7.25259C0 7.44942 0.0781922 7.63819 0.217375 7.77738C0.356558 7.91656 0.54533 7.99475 0.742164 7.99475C0.938998 7.99475 1.12777 7.91656 1.26695 7.77738Z" fill="#97ADB6"/>
</svg>
