<svg width="20" height="20" viewBox="0 0 20 20" fill="none" xmlns="http://www.w3.org/2000/svg">
<path d="M9.99999 20C15.4706 20 20 15.4608 20 9.99999C20 4.52941 15.4608 0 9.99018 0C4.52941 0 0 4.52941 0 9.99999C0 15.4608 4.53921 20 9.99999 20ZM9.99999 18.3333C5.37254 18.3333 1.67647 14.6274 1.67647 9.99999C1.67647 5.37254 5.36274 1.66667 9.99018 1.66667C14.6176 1.66667 18.3333 5.37254 18.3333 9.99999C18.3333 14.6274 14.6274 18.3333 9.99999 18.3333ZM7.0294 14.4902C7.49999 14.4902 7.7745 14.2059 7.7745 13.7058V7.99999H7.83332L12.1078 14.0195C12.3725 14.3824 12.5686 14.4902 12.8921 14.4902C13.3725 14.4902 13.6667 14.196 13.6667 13.6764V6.10783C13.6667 5.61764 13.3921 5.32352 12.9216 5.32352C12.4608 5.32352 12.196 5.63724 12.196 6.10783V11.9216H12.1275L7.86273 5.79411C7.60783 5.44117 7.39215 5.32352 7.06862 5.32352C6.58823 5.32352 6.31372 5.64705 6.31372 6.14705V13.7058C6.31372 14.1863 6.57842 14.4902 7.0294 14.4902Z" fill="#97ADB6"/>
</svg>
